# xmcd CD database file
#
# Track frame offsets:
#	151
#	21885
#	46725
#	67654
#	82176
#	104715
#	123591
#	134296
#	155372
#	170155
#	197748
#	216914
#	234061
#	247861
#	266716
#	284296
#	303545
#	325650
#
# Disc length: 4748 seconds
#
# Revision: 0
# Processed by: cddbd v1.4PL0 Copyright (c) Steve Scherf et al.
# Submitted via: Feurio! 1.65 - http://www.feurio.com
#
DISCID=fd128a12
DTITLE=Chris Rea - Dancing Down The Stony Road
DYEAR=2002
DGENRE=Blues
TTITLE0=Easy Rider
TTITLE1=Stony Road
TTITLE2=Dancing The Blues Away
TTITLE3=Catfish Girl
TTITLE4=Burning Feet
TTITLE5=Slow Dance
TTITLE6=Seqway
TTITLE7=Mississippi
TTITLE8=So Lonely
TTITLE9=Heading For The City
TTITLE10=When The Good Lord Talked To Jesus
TTITLE11=Someday My Peace Will Come
TTITLE12=Changing Times
TTITLE13=The Hustler
TTITLE14=Give That Girl A Diamond
TTITLE15=Ride On
TTITLE16=Qualified
TTITLE17=Sun Is Rising
EXTD=
EXTT0=
EXTT1=
EXTT2=
EXTT3=
EXTT4=
EXTT5=
EXTT6=
EXTT7=
EXTT8=
EXTT9=
EXTT10=
EXTT11=
EXTT12=
EXTT13=
EXTT14=
EXTT15=
EXTT16=
EXTT17=
PLAYORDER=
